<?xml version="1.0" encoding="utf-8"?><svg xmlns="http://www.w3.org/2000/svg" xmlns:xlink="http://www.w3.org/1999/xlink"><symbol viewBox="0 0 26 34" id="anchor" xmlns="http://www.w3.org/2000/svg"><defs><path id="aa" d="M970.93 988.97a.64.64 0 0 1-.57.35H969c-.5 3.5-3.46 7.06-6.78 8.24l.25.3c.18.23.2.54.04.78l-1.98 3.06a.64.64 0 0 1-1.08 0l-1.98-3.06a.67.67 0 0 1 .04-.77l.25-.31a11.08 11.08 0 0 1-6.78-8.24h-1.35a.64.64 0 0 1-.57-.35.67.67 0 0 1 .04-.67l2.5-3.78a.64.64 0 0 1 1.07 0l2.5 3.78a.64.64 0 1 1-.53 1.02h-1.23c.53 2.25 2.75 4.05 5.08 4.61v-14.46h-2a1 1 0 0 1-.99-1.02 1 1 0 0 1 1-1.02h1.03A3.73 3.73 0 0 1 960 971c2 0 3.64 1.66 3.64 3.71 0 1.08-.46 2.04-1.18 2.72h1.03a1 1 0 0 1 1 1.02 1 1 0 0 1-1 1.02h-2v14.46c2.34-.56 4.55-2.36 5.09-4.61h-1.24a.64.64 0 0 1-.57-.35.67.67 0 0 1 .04-.67l2.5-3.78a.64.64 0 0 1 1.07 0l2.51 3.78c.13.2.15.46.04.67zm-12.57-14.26c0 .93.73 1.68 1.64 1.68.9 0 1.64-.75 1.64-1.68 0-.92-.73-1.68-1.64-1.68-.9 0-1.64.76-1.64 1.68z"/></defs><use xlink:href="#aa" transform="translate(-947 -969)"/></symbol><symbol viewBox="0 0 9.969 20" id="f" xmlns="http://www.w3.org/2000/svg"><defs><style>.bcls-1{fill-rule:evenodd}</style></defs><path id="bfacebook" class="bcls-1" d="M382.806 11265.3h2.151v-3.3H382.2c-3.651.1-4.635 2.2-4.7 4.4v2.3h-2.487v3.3h2.487v10h4.137v-10h2.513l.6-3.3h-3.117v-2.1a1.225 1.225 0 0 1 1.173-1.3z" transform="translate(-375 -11262)"/></symbol><symbol viewBox="0 0 19.937 17.5" id="g" xmlns="http://www.w3.org/2000/svg"><defs><style>.ccls-1{fill-rule:evenodd}</style></defs><path id="cgoogle_plus" data-name="google plus" class="ccls-1" d="M499.976 11273a3.381 3.381 0 0 1-1.482-1.7c0-.6.172-.9 1.081-1.7a3.366 3.366 0 0 0 1.487-2.8c0-1.4-.527-3.1-1.712-3.1h1.786l1.261-.9h-5.633c-2.526 0-4.9 1.8-4.9 4a3.979 3.979 0 0 0 4.29 4h.523a2.262 2.262 0 0 0-.287 1 2.133 2.133 0 0 0 .767 1.6h-.977c-3.127 0-5.975 1.7-5.975 3.7 0 2.1 3.08 3.2 6.208 3.2 3.565 0 5.406-1.6 5.406-3.6a3.946 3.946 0 0 0-1.843-3.7zm-3.008-2.8c-1.453-.1-2.831-1.6-3.081-3.6-.251-1.9.722-3.3 2.172-3.3 1.451.1 2.831 1.6 3.082 3.5s-.723 3.4-2.173 3.4zm-.569 9.2c-2.161 0-3.723-.9-3.723-2.6 0-1.6 1.936-2.9 4.1-2.9a6.1 6.1 0 0 1 1.4.2c1.174.9 1.809 1.3 2.046 2.3a1.466 1.466 0 0 1 .069.5c0 1.7-.852 2.5-3.891 2.5zm11.244-15.8v2.6h2.482v1.6h-2.482v2.5h-1.658v-2.5H503.5v-1.6h2.483v-2.6h1.658z" transform="translate(-490.188 -11262.8)"/></symbol><symbol viewBox="0 0 32 32" id="home" xmlns="http://www.w3.org/2000/svg"><path d="M32 18.451L16 6.031 0 18.451v-5.064L16 .967l16 12.42zM28 18v12h-8v-8h-8v8H4V18l12-9z"/></symbol><symbol viewBox="0 0 20.219 18.6" id="l" xmlns="http://www.w3.org/2000/svg"><defs><style>.ecls-1{fill-rule:evenodd}</style></defs><path id="elinkedin" class="ecls-1" d="M526.715 11281.2h4.14v-12.5h-4.14v12.5zm14.747-12.9a4.493 4.493 0 0 0-4.017 2.1v-1.7h-4.115v12.5h4.141v-6.8c0-1.4.722-2.8 2.357-2.8a2.692 2.692 0 0 1 2.631 2.8v6.8h4.141v-7.1c0-4.9-3.329-5.8-5.138-5.8zm-12.659-5.7a2.211 2.211 0 1 0 2.434 2.2 2.337 2.337 0 0 0-2.437-2.2z" transform="translate(-526.375 -11262.6)"/></symbol><symbol viewBox="0 0 34 29" id="layers" xmlns="http://www.w3.org/2000/svg"><defs><path id="fa" d="M1042.86 2559.31l11.37 5.49c.43.2.77.55.77 1 0 .44-.34.79-.77 1l-12 5.78a.45.45 0 0 1-.2.05l-8.52.15a.46.46 0 0 1-.2-.04l-8.54-4.12c-.43-.2-.77-.55-.77-1 0-.44.34-.78.77-1l15.17-7.3a3.4 3.4 0 0 1 1.46-.32c.5 0 1.02.1 1.46.31zm-2.53.78l-15.16 7.31c-.26.13-.28.22-.28.22s.02.1.28.23l8.01 3.86 4.23-2.04a.45.45 0 0 1 .4 0l4.22 2.04 11.8-5.7c.26-.11.28-.2.28-.21 0 0-.02-.1-.27-.22l-11.38-5.49c-.26-.13-.66-.2-1.06-.2s-.8.07-1.07.2zm13.78 5.7zm-29.22 1.83zm17.87-5.67l6.32 3.04c.11.06.16.2.1.3-.06.1-.2.15-.3.1l-6.32-3.06a.22.22 0 0 1-.12-.19c0-.12.09-.21.21-.22.04 0 .07.01.1.03zm-3.16 1.52l6.32 3.05c.12.06.16.19.1.3-.06.1-.2.14-.3.08l-6.32-3.04a.22.22 0 0 1-.12-.2c0-.11.09-.21.21-.21.04 0 .08 0 .1.02zm-3.16 1.52l6.32 3.05c.1.05.15.18.1.29a.22.22 0 0 1-.3.1l-6.32-3.05a.22.22 0 0 1-.12-.19c0-.12.1-.22.21-.22.04 0 .08 0 .11.02zm-5.37.26c.06.1.01.23-.1.28l-4.34 2.1 1.81.87h.01c.11.06.15.19.1.3-.06.1-.2.14-.3.09l-2.21-1.07a.21.21 0 0 1 0-.39l4.73-2.28a.22.22 0 0 1 .3.1zm3.75 6.64l5.37-.1-2.58-1.24zm20.05-.99c.12.27 0 .58-.26.7l-16.96 8.06a.55.55 0 0 1-.47 0l-12.87-6.32h-.01a.52.52 0 0 1-.23-.72.54.54 0 0 1 .72-.22l12.63 6.2 16.72-7.94a.54.54 0 0 1 .73.25zm-11.9 4.06c.07.13.01.29-.12.35l-5.38 2.63a.28.28 0 0 1-.24 0l-4.84-2.42a.26.26 0 0 1-.12-.35.27.27 0 0 1 .36-.12l4.72 2.36 5.26-2.57a.27.27 0 0 1 .36.12zm11.9 1.2c.12.26 0 .57-.26.7l-16.96 8.05a.55.55 0 0 1-.47 0l-12.87-6.32-.02-.01a.52.52 0 0 1-.23-.72.54.54 0 0 1 .73-.21l12.63 6.2 16.72-7.94a.54.54 0 0 1 .24-.06c.2 0 .4.12.49.3zm-11.9 4.05c.07.13.01.29-.12.35l-5.38 2.63a.27.27 0 0 1-.24 0l-4.84-2.42a.26.26 0 0 1-.12-.36.27.27 0 0 1 .36-.1l4.72 2.35 5.26-2.57a.27.27 0 0 1 .12-.03c.1 0 .2.06.24.15z"/></defs><use xlink:href="#fa" transform="translate(-1022 -2557)"/></symbol><symbol viewBox="0 0 30 25" id="nonitor" xmlns="http://www.w3.org/2000/svg"><defs><path id="ga" d="M1047.07 2439.56c0 .24-.2.44-.45.44h-14.24a.44.44 0 0 1-.45-.44c0-.24.2-.44.45-.44h5.2v-1.9a.44.44 0 1 1 .89 0v1.9h2.07v-1.9a.44.44 0 1 1 .89 0v1.9h5.2c.24 0 .44.2.44.44zm5.93-20.53v15.84c0 .56-.47 1.02-1.04 1.02h-.74v.15c0 .24-.2.44-.45.44a.44.44 0 0 1-.44-.44v-.15h-.9v.15c0 .24-.19.44-.44.44a.44.44 0 0 1-.44-.44v-.15h-.9v.15c0 .24-.19.44-.44.44a.44.44 0 0 1-.44-.44v-.15h-19.73c-.57 0-1.04-.46-1.04-1.02v-15.84c0-.57.47-1.03 1.04-1.03h24.92c.57 0 1.04.46 1.04 1.03zm-.89 0a.15.15 0 0 0-.15-.15h-24.92a.15.15 0 0 0-.15.15v15.84c0 .07.07.14.15.14h24.92c.08 0 .15-.07.15-.14zm-.89 1.17v9.39c0 .24-.2.44-.45.44a.44.44 0 0 1-.44-.44v-8.95h-22.1a.44.44 0 0 1-.45-.44c0-.24.2-.44.45-.44h22.54c.25 0 .45.2.45.44zm0 11.15v2.34c0 .25-.2.44-.45.44h-22.54a.44.44 0 0 1-.45-.44v-11.73a.446.446 0 0 1 .89 0v11.3h21.66v-1.91a.44.44 0 1 1 .89 0z"/></defs><use xlink:href="#ga" transform="translate(-1024 -2416)"/></symbol><symbol viewBox="0 0 11.625 20" id="o" xmlns="http://www.w3.org/2000/svg"><defs><style>.hcls-1{fill-rule:evenodd}</style></defs><path id="htumblr" class="hcls-1" d="M658.661 11278.7a2.493 2.493 0 0 1-2.63-2.3v-6h4.138v-3.4h-4.138v-5h-2.893a5.01 5.01 0 0 1-3.751 5.1v3.2h2.491v7.2a4.862 4.862 0 0 0 5.04 4.5 6.666 6.666 0 0 0 4.089-1.1v-3.3a2.672 2.672 0 0 1-2.346 1.1z" transform="translate(-649.375 -11262)"/></symbol><symbol viewBox="0 0 28 25" id="photo" xmlns="http://www.w3.org/2000/svg"><defs><path id="ia" d="M1051 2711.6v10.98a3.41 3.41 0 0 1-3.35 3.42h-18.3a3.41 3.41 0 0 1-3.35-3.42v-10.98c0-1.87 1.51-3.4 3.35-3.4l2.43-.01 2.6-3.82c.15-.22.4-.37.67-.37h6.77c.28 0 .54.15.7.39l2.5 3.8 2.63.01a3.39 3.39 0 0 1 3.35 3.4zm-1.65 10.98h-.01v-10.98c0-.95-.77-1.73-1.7-1.73l-3.08-.03a.85.85 0 0 1-.68-.37l-2.5-3.79h-5.89l-2.6 3.82a.82.82 0 0 1-.67.37h-2.87c-.93 0-1.7.78-1.7 1.73v10.98c0 .94.77 1.75 1.7 1.75h18.3c.93 0 1.7-.8 1.7-1.75zm-4.94-6.46a5.89 5.89 0 0 1-5.84 5.91 5.89 5.89 0 0 1-5.84-5.91 5.88 5.88 0 0 1 5.84-5.91 5.89 5.89 0 0 1 5.84 5.9zm-1.65 0a4.22 4.22 0 0 0-4.2-4.24c-2.3 0-4.18 1.9-4.18 4.24a4.23 4.23 0 0 0 4.19 4.24c2.3 0 4.19-1.9 4.19-4.24zm3.62-3.79c.18 0 .32.15.32.32a.32.32 0 0 1-.63 0c0-.17.14-.32.31-.32zm1.14.32c0 .64-.5 1.16-1.14 1.16-.63 0-1.14-.52-1.14-1.16 0-.64.51-1.15 1.14-1.15.64 0 1.14.51 1.14 1.15zm-.63 0a.52.52 0 0 0-.5-.51c-.28 0-.51.24-.51.51 0 .28.22.52.5.52.3 0 .51-.24.51-.52z"/></defs><use xlink:href="#ia" transform="translate(-1024 -2702)"/></symbol><symbol viewBox="0 0 19.875 20" id="r" xmlns="http://www.w3.org/2000/svg"><defs><style>.jcls-1{fill-rule:evenodd}</style></defs><path id="jrss" class="jcls-1" d="M453.338 11276.2a2.9 2.9 0 1 0 2.9 2.9 2.9 2.9 0 0 0-2.9-2.9zm-2.747-7.5h-.153v3.7h.153a9.5 9.5 0 0 1 9.384 9.4s-.01.1-.012.2h3.7c0-.1.013-.2.013-.2a13.169 13.169 0 0 0-13.085-13.1zm0-6.7h-.153v3.7h.153a16.189 16.189 0 0 1 16.067 16.1s0 .1-.006.2h3.648c0-.1.006-.2.006-.2a19.874 19.874 0 0 0-19.715-19.8z" transform="translate(-450.438 -11262)"/></symbol><symbol viewBox="0 0 19.906 20" id="s" xmlns="http://www.w3.org/2000/svg"><defs><style>.kcls-1{fill-rule:evenodd}</style></defs><path id="kskype" class="kcls-1" d="M584.939 11273.3a7.742 7.742 0 0 0 .11-1.3 8.725 8.725 0 0 0-8.869-8.7 6.061 6.061 0 0 0-1.343.2 4.84 4.84 0 0 0-8.341 3.6 4.912 4.912 0 0 0 1.019 3 9.369 9.369 0 0 0-.2 1.9 9.156 9.156 0 0 0 8.869 9.2 11.012 11.012 0 0 0 1.836-.2 5.267 5.267 0 0 0 3.318 1 5.089 5.089 0 0 0 5.057-5.1 5.3 5.3 0 0 0-1.456-3.6zm-4.62 2.8a3.6 3.6 0 0 1-1.534 1.2 5.866 5.866 0 0 1-2.393.4 5.59 5.59 0 0 1-2.739-.6 3.38 3.38 0 0 1-1.242-1.1 2.436 2.436 0 0 1-.478-1.3.925.925 0 0 1 .287-.7.965.965 0 0 1 .73-.3 1.176 1.176 0 0 1 .608.2 2.371 2.371 0 0 1 .424.7 4.067 4.067 0 0 0 .463.8 1.578 1.578 0 0 0 .7.5 2.113 2.113 0 0 0 1.186.3 2.778 2.778 0 0 0 1.641-.5 1.242 1.242 0 0 0 .631-1.1 1.066 1.066 0 0 0-.34-.8 2.268 2.268 0 0 0-.88-.5 14.466 14.466 0 0 0-1.442-.3 8.424 8.424 0 0 1-2.022-.7 2.878 2.878 0 0 1-1.293-.9 2.33 2.33 0 0 1-.478-1.5 2.248 2.248 0 0 1 .5-1.5 2.575 2.575 0 0 1 1.461-1 5.241 5.241 0 0 1 2.248-.4 8.941 8.941 0 0 1 1.786.2 4.021 4.021 0 0 1 1.249.7 1.979 1.979 0 0 1 .727.8 1.927 1.927 0 0 1 .23.8.929.929 0 0 1-.287.7.947.947 0 0 1-.715.3.985.985 0 0 1-.593-.2 1.8 1.8 0 0 1-.439-.6 2.394 2.394 0 0 0-.735-.9 2.45 2.45 0 0 0-1.377-.3 2.912 2.912 0 0 0-1.418.3 1.23 1.23 0 0 0-.539.9.66.66 0 0 0 .184.5 1.037 1.037 0 0 0 .5.4c.213.1.43.2.649.3a8.418 8.418 0 0 1 1.087.2c.631.2 1.2.3 1.716.5a10.848 10.848 0 0 1 1.308.6 2.053 2.053 0 0 1 .841.9 2.757 2.757 0 0 1 .3 1.3 2.981 2.981 0 0 1-.512 1.7z" transform="translate(-566.5 -11262)"/></symbol><symbol viewBox="0 0 19.875 16.3" id="t" xmlns="http://www.w3.org/2000/svg"><defs><style>.lcls-1{fill:#e74c3c;fill-rule:evenodd}</style></defs><path id="ltwitter" class="lcls-1" d="M430.542 11266.1a11.686 11.686 0 0 1-2.277.6 4.36 4.36 0 0 0 1.71-2.2 8.012 8.012 0 0 1-2.56.9 4.141 4.141 0 0 0-2.966-1.4 4.079 4.079 0 0 0-3.923 4.2 5.068 5.068 0 0 0 .1 1 11.859 11.859 0 0 1-8.643-4.5 4.331 4.331 0 0 0 1.245 5.6 2.331 2.331 0 0 1-1.792-.4 3.973 3.973 0 0 0 3.166 4 3.378 3.378 0 0 1-1.709.1 3.9 3.9 0 0 0 3.669 2.8 6.971 6.971 0 0 1-5.919 1.7 11.868 11.868 0 0 0 6.421 1.8 11.6 11.6 0 0 0 11.772-12v-.1a7.276 7.276 0 0 0 1.706-2.1z" transform="translate(-410.656 -11264)"/></symbol><symbol viewBox="0 0 19.907 17.5" id="v" xmlns="http://www.w3.org/2000/svg"><defs><style>.mcls-1{fill-rule:evenodd}</style></defs><path id="mvimeo" class="mcls-1" d="M606.287 11268.5c1.75-1.4 4.241-4 6.182-4s2.415 1.8 2.682 3.9c.267 2 1.027 6.5 2.054 6.5s3.367-4 3.234-5.5-1.826-1.3-2.758-.8c.855-3.1 2.835-4.9 5.363-4.9s3.138 1.9 3.138 4.1c0 3.3-6.771 13.4-10.859 13.4-2.531 0-3.159-3.7-3.671-5.5s-1.521-6.6-2.7-6.9a4.316 4.316 0 0 0-1.75.9z" transform="translate(-606.281 -11263.7)"/></symbol></svg>