<?xml version="1.0" encoding="utf-8"?><svg xmlns="http://www.w3.org/2000/svg" xmlns:xlink="http://www.w3.org/1999/xlink"><symbol viewBox="0 0 26 34" id="anchor" xmlns="http://www.w3.org/2000/svg"><defs><path id="aa" d="M970.93 988.97a.64.64 0 0 1-.57.35H969c-.5 3.5-3.46 7.06-6.78 8.24l.25.3c.18.23.2.54.04.78l-1.98 3.06a.64.64 0 0 1-1.08 0l-1.98-3.06a.67.67 0 0 1 .04-.77l.25-.31a11.08 11.08 0 0 1-6.78-8.24h-1.35a.64.64 0 0 1-.57-.35.67.67 0 0 1 .04-.67l2.5-3.78a.64.64 0 0 1 1.07 0l2.5 3.78a.64.64 0 1 1-.53 1.02h-1.23c.53 2.25 2.75 4.05 5.08 4.61v-14.46h-2a1 1 0 0 1-.99-1.02 1 1 0 0 1 1-1.02h1.03A3.73 3.73 0 0 1 960 971c2 0 3.64 1.66 3.64 3.71 0 1.08-.46 2.04-1.18 2.72h1.03a1 1 0 0 1 1 1.02 1 1 0 0 1-1 1.02h-2v14.46c2.34-.56 4.55-2.36 5.09-4.61h-1.24a.64.64 0 0 1-.57-.35.67.67 0 0 1 .04-.67l2.5-3.78a.64.64 0 0 1 1.07 0l2.51 3.78c.13.2.15.46.04.67zm-12.57-14.26c0 .93.73 1.68 1.64 1.68.9 0 1.64-.75 1.64-1.68 0-.92-.73-1.68-1.64-1.68-.9 0-1.64.76-1.64 1.68z"/></defs><use xlink:href="#aa" transform="translate(-947 -969)"/></symbol><symbol viewBox="0 0 32 32" id="home" xmlns="http://www.w3.org/2000/svg"><path d="M32 18.451L16 6.031 0 18.451v-5.064L16 .967l16 12.42zM28 18v12h-8v-8h-8v8H4V18l12-9z"/></symbol><symbol viewBox="0 0 34 29" id="layers" xmlns="http://www.w3.org/2000/svg"><defs><path id="ca" d="M1042.86 2559.31l11.37 5.49c.43.2.77.55.77 1 0 .44-.34.79-.77 1l-12 5.78a.45.45 0 0 1-.2.05l-8.52.15a.46.46 0 0 1-.2-.04l-8.54-4.12c-.43-.2-.77-.55-.77-1 0-.44.34-.78.77-1l15.17-7.3a3.4 3.4 0 0 1 1.46-.32c.5 0 1.02.1 1.46.31zm-2.53.78l-15.16 7.31c-.26.13-.28.22-.28.22s.02.1.28.23l8.01 3.86 4.23-2.04a.45.45 0 0 1 .4 0l4.22 2.04 11.8-5.7c.26-.11.28-.2.28-.21 0 0-.02-.1-.27-.22l-11.38-5.49c-.26-.13-.66-.2-1.06-.2s-.8.07-1.07.2zm13.78 5.7zm-29.22 1.83zm17.87-5.67l6.32 3.04c.11.06.16.2.1.3-.06.1-.2.15-.3.1l-6.32-3.06a.22.22 0 0 1-.12-.19c0-.12.09-.21.21-.22.04 0 .07.01.1.03zm-3.16 1.52l6.32 3.05c.12.06.16.19.1.3-.06.1-.2.14-.3.08l-6.32-3.04a.22.22 0 0 1-.12-.2c0-.11.09-.21.21-.21.04 0 .08 0 .1.02zm-3.16 1.52l6.32 3.05c.1.05.15.18.1.29a.22.22 0 0 1-.3.1l-6.32-3.05a.22.22 0 0 1-.12-.19c0-.12.1-.22.21-.22.04 0 .08 0 .11.02zm-5.37.26c.06.1.01.23-.1.28l-4.34 2.1 1.81.87h.01c.11.06.15.19.1.3-.06.1-.2.14-.3.09l-2.21-1.07a.21.21 0 0 1 0-.39l4.73-2.28a.22.22 0 0 1 .3.1zm3.75 6.64l5.37-.1-2.58-1.24zm20.05-.99c.12.27 0 .58-.26.7l-16.96 8.06a.55.55 0 0 1-.47 0l-12.87-6.32h-.01a.52.52 0 0 1-.23-.72.54.54 0 0 1 .72-.22l12.63 6.2 16.72-7.94a.54.54 0 0 1 .73.25zm-11.9 4.06c.07.13.01.29-.12.35l-5.38 2.63a.28.28 0 0 1-.24 0l-4.84-2.42a.26.26 0 0 1-.12-.35.27.27 0 0 1 .36-.12l4.72 2.36 5.26-2.57a.27.27 0 0 1 .36.12zm11.9 1.2c.12.26 0 .57-.26.7l-16.96 8.05a.55.55 0 0 1-.47 0l-12.87-6.32-.02-.01a.52.52 0 0 1-.23-.72.54.54 0 0 1 .73-.21l12.63 6.2 16.72-7.94a.54.54 0 0 1 .24-.06c.2 0 .4.12.49.3zm-11.9 4.05c.07.13.01.29-.12.35l-5.38 2.63a.27.27 0 0 1-.24 0l-4.84-2.42a.26.26 0 0 1-.12-.36.27.27 0 0 1 .36-.1l4.72 2.35 5.26-2.57a.27.27 0 0 1 .12-.03c.1 0 .2.06.24.15z"/></defs><use xlink:href="#ca" transform="translate(-1022 -2557)"/></symbol><symbol viewBox="0 0 30 25" id="nonitor" xmlns="http://www.w3.org/2000/svg"><defs><path id="da" d="M1047.07 2439.56c0 .24-.2.44-.45.44h-14.24a.44.44 0 0 1-.45-.44c0-.24.2-.44.45-.44h5.2v-1.9a.44.44 0 1 1 .89 0v1.9h2.07v-1.9a.44.44 0 1 1 .89 0v1.9h5.2c.24 0 .44.2.44.44zm5.93-20.53v15.84c0 .56-.47 1.02-1.04 1.02h-.74v.15c0 .24-.2.44-.45.44a.44.44 0 0 1-.44-.44v-.15h-.9v.15c0 .24-.19.44-.44.44a.44.44 0 0 1-.44-.44v-.15h-.9v.15c0 .24-.19.44-.44.44a.44.44 0 0 1-.44-.44v-.15h-19.73c-.57 0-1.04-.46-1.04-1.02v-15.84c0-.57.47-1.03 1.04-1.03h24.92c.57 0 1.04.46 1.04 1.03zm-.89 0a.15.15 0 0 0-.15-.15h-24.92a.15.15 0 0 0-.15.15v15.84c0 .07.07.14.15.14h24.92c.08 0 .15-.07.15-.14zm-.89 1.17v9.39c0 .24-.2.44-.45.44a.44.44 0 0 1-.44-.44v-8.95h-22.1a.44.44 0 0 1-.45-.44c0-.24.2-.44.45-.44h22.54c.25 0 .45.2.45.44zm0 11.15v2.34c0 .25-.2.44-.45.44h-22.54a.44.44 0 0 1-.45-.44v-11.73a.446.446 0 0 1 .89 0v11.3h21.66v-1.91a.44.44 0 1 1 .89 0z"/></defs><use xlink:href="#da" transform="translate(-1024 -2416)"/></symbol><symbol viewBox="0 0 28 25" id="photo" xmlns="http://www.w3.org/2000/svg"><defs><path id="ea" d="M1051 2711.6v10.98a3.41 3.41 0 0 1-3.35 3.42h-18.3a3.41 3.41 0 0 1-3.35-3.42v-10.98c0-1.87 1.51-3.4 3.35-3.4l2.43-.01 2.6-3.82c.15-.22.4-.37.67-.37h6.77c.28 0 .54.15.7.39l2.5 3.8 2.63.01a3.39 3.39 0 0 1 3.35 3.4zm-1.65 10.98h-.01v-10.98c0-.95-.77-1.73-1.7-1.73l-3.08-.03a.85.85 0 0 1-.68-.37l-2.5-3.79h-5.89l-2.6 3.82a.82.82 0 0 1-.67.37h-2.87c-.93 0-1.7.78-1.7 1.73v10.98c0 .94.77 1.75 1.7 1.75h18.3c.93 0 1.7-.8 1.7-1.75zm-4.94-6.46a5.89 5.89 0 0 1-5.84 5.91 5.89 5.89 0 0 1-5.84-5.91 5.88 5.88 0 0 1 5.84-5.91 5.89 5.89 0 0 1 5.84 5.9zm-1.65 0a4.22 4.22 0 0 0-4.2-4.24c-2.3 0-4.18 1.9-4.18 4.24a4.23 4.23 0 0 0 4.19 4.24c2.3 0 4.19-1.9 4.19-4.24zm3.62-3.79c.18 0 .32.15.32.32a.32.32 0 0 1-.63 0c0-.17.14-.32.31-.32zm1.14.32c0 .64-.5 1.16-1.14 1.16-.63 0-1.14-.52-1.14-1.16 0-.64.51-1.15 1.14-1.15.64 0 1.14.51 1.14 1.15zm-.63 0a.52.52 0 0 0-.5-.51c-.28 0-.51.24-.51.51 0 .28.22.52.5.52.3 0 .51-.24.51-.52z"/></defs><use xlink:href="#ea" transform="translate(-1024 -2702)"/></symbol></svg>