<svg xmlns="http://www.w3.org/2000/svg" width="19.937" height="17.5" viewBox="0 0 19.937 17.5"><defs><style>.cls-1{fill-rule:evenodd}</style></defs><path id="google_plus" data-name="google plus" class="cls-1" d="M499.976 11273a3.381 3.381 0 0 1-1.482-1.7c0-.6.172-.9 1.081-1.7a3.366 3.366 0 0 0 1.487-2.8c0-1.4-.527-3.1-1.712-3.1h1.786l1.261-.9h-5.633c-2.526 0-4.9 1.8-4.9 4a3.979 3.979 0 0 0 4.29 4h.523a2.262 2.262 0 0 0-.287 1 2.133 2.133 0 0 0 .767 1.6h-.977c-3.127 0-5.975 1.7-5.975 3.7 0 2.1 3.08 3.2 6.208 3.2 3.565 0 5.406-1.6 5.406-3.6a3.946 3.946 0 0 0-1.843-3.7zm-3.008-2.8c-1.453-.1-2.831-1.6-3.081-3.6-.251-1.9.722-3.3 2.172-3.3 1.451.1 2.831 1.6 3.082 3.5s-.723 3.4-2.173 3.4zm-.569 9.2c-2.161 0-3.723-.9-3.723-2.6 0-1.6 1.936-2.9 4.1-2.9a6.1 6.1 0 0 1 1.4.2c1.174.9 1.809 1.3 2.046 2.3a1.466 1.466 0 0 1 .069.5c0 1.7-.852 2.5-3.891 2.5zm11.244-15.8v2.6h2.482v1.6h-2.482v2.5h-1.658v-2.5H503.5v-1.6h2.483v-2.6h1.658z" transform="translate(-490.188 -11262.8)"/></svg>