<svg xmlns="http://www.w3.org/2000/svg" width="20.219" height="18.6" viewBox="0 0 20.219 18.6"><defs><style>.cls-1{fill-rule:evenodd}</style></defs><path id="linkedin" class="cls-1" d="M526.715 11281.2h4.14v-12.5h-4.14v12.5zm14.747-12.9a4.493 4.493 0 0 0-4.017 2.1v-1.7h-4.115v12.5h4.141v-6.8c0-1.4.722-2.8 2.357-2.8a2.692 2.692 0 0 1 2.631 2.8v6.8h4.141v-7.1c0-4.9-3.329-5.8-5.138-5.8zm-12.659-5.7a2.211 2.211 0 1 0 2.434 2.2 2.337 2.337 0 0 0-2.437-2.2z" transform="translate(-526.375 -11262.6)"/></svg>