<svg xmlns="http://www.w3.org/2000/svg" width="19.875" height="20" viewBox="0 0 19.875 20"><defs><style>.cls-1{fill-rule:evenodd}</style></defs><path id="rss" class="cls-1" d="M453.338 11276.2a2.9 2.9 0 1 0 2.9 2.9 2.9 2.9 0 0 0-2.9-2.9zm-2.747-7.5h-.153v3.7h.153a9.5 9.5 0 0 1 9.384 9.4s-.01.1-.012.2h3.7c0-.1.013-.2.013-.2a13.169 13.169 0 0 0-13.085-13.1zm0-6.7h-.153v3.7h.153a16.189 16.189 0 0 1 16.067 16.1s0 .1-.006.2h3.648c0-.1.006-.2.006-.2a19.874 19.874 0 0 0-19.715-19.8z" transform="translate(-450.438 -11262)"/></svg>